<svg width="42" height="42" viewBox="0 0 42 42" fill="none" xmlns="http://www.w3.org/2000/svg">
<path fill-rule="evenodd" clip-rule="evenodd" d="M21 0.395874C9.62068 0.395874 0.395874 9.62068 0.395874 21C0.395874 32.3795 9.62068 41.6042 21 41.6042C32.3795 41.6042 41.6042 32.3795 41.6042 21C41.6042 9.62068 32.3795 0.395874 21 0.395874ZM29.6831 17.2248C30.2445 16.6635 30.2445 15.7533 29.6831 15.1919C29.1217 14.6305 28.2117 14.6305 27.6503 15.1919L18.7832 24.0588C18.5962 24.2459 18.2927 24.2459 18.1057 24.0588L14.3498 20.3029C13.7885 19.7416 12.8783 19.7416 12.3169 20.3029C11.7555 20.8643 11.7555 21.7746 12.3169 22.336L16.0727 26.0919C17.3825 27.4017 19.5064 27.4017 20.8162 26.0919L29.6831 17.2248Z" fill="#097AFF"/>
</svg>
