<svg width="349" height="466" viewBox="0 0 349 466" fill="none" xmlns="http://www.w3.org/2000/svg">
<g clip-path="url(#clip0_230_382)">
<mask id="mask0_230_382" style="mask-type:luminance" maskUnits="userSpaceOnUse" x="-680" y="-178" width="1866" height="600">
<path d="M1185.06 -177.61H-679.73V421.52H1185.06V-177.61Z" fill="white"/>
</mask>
<g mask="url(#mask0_230_382)">
<path d="M287.62 217.13C287.62 217.13 284.42 216.13 283.14 218.73C281.86 221.33 277.84 252.08 278.96 260.73C280.08 269.38 283.29 266.19 283.29 266.19C283.29 266.19 282.97 271.32 280.89 272.76C280.839 272.733 280.792 272.7 280.75 272.66L280.56 272.53C279.33 271.72 275.07 268.9 271.13 266.2C268.512 264.425 266.043 262.438 263.75 260.26C263.75 260.26 264.4 255.13 264.4 253.69C264.4 252.25 254.13 218.08 244.04 207.51C234.62 197.64 243.87 142.07 245.17 134.57L245.32 133.73C245.32 133.73 253.49 136.14 257.02 138.73C260.55 141.32 273.23 172.55 273.86 188.59C274.49 204.63 280.27 213.72 280.27 213.72C280.27 213.72 282.2 212.55 285.41 213.72L287.62 217.13Z" fill="url(#paint0_linear_230_382)"/>
<path style="mix-blend-mode:multiply" opacity="0.83" d="M280.53 272.53C279.3 271.72 275.04 268.9 271.1 266.2C268.482 264.425 266.013 262.438 263.72 260.26C263.72 260.26 264.37 255.13 264.37 253.69C264.37 252.25 254.1 218.08 244.01 207.51C234.59 197.64 243.84 142.07 245.14 134.57L245.29 133.73C245.29 133.73 251.94 142.07 254.83 158.67C257.72 175.27 253.63 207.99 253.63 207.99C253.63 207.99 259.4 234.45 273.63 234.93C273.63 234.93 261.72 252.36 266.42 261.11C267.27 262.78 278.36 271 280.53 272.53Z" fill="url(#paint1_linear_230_382)"/>
<path d="M253.39 425.68C253.175 428.166 252.713 430.625 252.01 433.02C251.01 436.56 249.68 439.22 249.01 442.26C247.9 447.07 246.61 465.8 246.61 465.8H212.89C214.17 458.87 215.77 453.5 217.7 436.17C219.54 419.6 209.64 362.5 208.79 357.61L208.73 357.28C200.07 393.51 178.82 435.53 176.65 437.93C174.48 440.33 170.16 442.5 170.16 442.5C167.75 447.07 162.69 465.8 162.69 465.8H123.97C126.13 455.9 135.97 441.07 139.13 435.53C142.29 429.99 154.04 392.23 157.13 367.22C158.44 356.8 159.44 345.79 160.18 336.48C161.18 323.48 161.7 313.83 161.7 313.83C171.55 303.74 248.63 293.78 248.63 293.78L251.07 301.69C251.07 301.69 253.82 302.29 254.19 304.22C254.56 306.15 251.97 307.9 251.97 307.9C260.65 356.96 254.1 417.74 253.39 425.68Z" fill="url(#paint2_linear_230_382)"/>
<path style="mix-blend-mode:multiply" opacity="0.62" d="M161.52 317.66C161.52 317.66 184.83 314.79 199.52 321.76C214.21 328.73 212.88 340.76 212.88 340.76L208.74 357.27L222.98 342.39L251.98 307.91C248.084 310.119 243.871 311.714 239.49 312.64C239.49 312.64 249.39 306.51 251.07 301.7L248.64 293.79L161.52 312.39V317.66Z" fill="url(#paint3_linear_230_382)"/>
<path d="M276.6 252C276.6 252 275.6 262.83 282.13 267.88C282.13 267.88 295.48 260.88 302.06 249.52C308.64 238.16 276.6 252 276.6 252Z" fill="url(#paint4_linear_230_382)"/>
<path d="M161.74 313.82L161.52 315.49C161.52 315.49 179.52 310.94 188.18 310.62C196.84 310.3 206.02 317.19 224.46 313.82C242.9 310.45 249.76 297.15 249.76 297.15L248.67 293.77L161.74 313.82Z" fill="url(#paint5_linear_230_382)"/>
<path style="mix-blend-mode:multiply" opacity="0.62" d="M167.79 314.01C181.564 310.786 195.519 308.395 209.58 306.85C233.89 304.08 243.04 303.24 245.31 301.44C247.58 299.64 249.12 295.16 249.12 295.16L248.67 293.77L161.74 313.82L161.52 315.49L167.79 314.01Z" fill="url(#paint6_linear_230_382)"/>
<path d="M328.03 217.91C328.03 217.91 331.76 220.91 331.78 223.51C331.8 226.11 325.63 224.9 325.63 224.9L328.03 217.91Z" fill="url(#paint7_linear_230_382)"/>
<path d="M144.89 206.06L142.27 191.62C142.27 191.62 135.53 191.62 125.68 200.77C125.256 204.69 124.023 208.48 122.06 211.9C122.06 211.9 110.71 217.37 105.44 224.82C100.17 232.27 98.18 233.02 92.69 228.82C91.23 227.7 90.24 223.9 89.69 218.74C88.9456 209.273 89.2373 199.753 90.56 190.35C91.68 182.4 93.56 175.35 96.07 171.69C95.9927 168.631 96.7424 165.608 98.24 162.94C98.35 163.02 98.48 163.09 98.59 163.18C100.039 164.153 101.785 164.581 103.52 164.39C106.25 163.91 108.52 159.73 108.52 159.73C109.446 159.841 110.294 160.303 110.89 161.02C110.89 161.02 121.79 154.41 128.7 143.27C135.61 132.13 136.7 130.78 136.7 130.78C138.045 130.265 139.434 129.873 140.85 129.61C142.918 129.184 145.052 129.184 147.12 129.61C147.12 129.61 180.66 181.39 144.89 206.06Z" fill="url(#paint8_linear_230_382)"/>
<path d="M216.27 133.73C216.27 133.73 212.09 127.5 212.09 112.98L179.57 97.1C179.57 97.1 181.2 108.31 175.69 118.02C174.23 120.59 167.44 124.64 167.44 124.64C167.44 124.64 197.16 161.3 211.44 157.78C225.72 154.26 222.85 138.72 222.85 138.72C222.85 138.72 220.43 139.67 216.27 133.73Z" fill="url(#paint9_linear_230_382)"/>
<path d="M171.44 121.99C171.44 121.99 187.55 138.05 201.44 138.99C216.3 139.99 213.85 127.6 213.85 127.6C213.85 127.6 220.57 137.02 218.64 144.44C216.71 151.86 202.05 152.22 190.74 147.29C179.43 142.36 168.62 123.2 168.62 123.2L171.44 121.99Z" fill="url(#paint10_linear_230_382)"/>
<path style="mix-blend-mode:multiply" opacity="0.83" d="M144.89 206.06L142.27 191.62C142.27 191.62 135.53 191.62 125.68 200.77C125.256 204.69 124.023 208.48 122.06 211.9C122.06 211.9 110.71 217.37 105.44 224.82C100.17 232.27 98.18 233.02 92.69 228.82C91.23 227.7 90.24 223.9 89.69 218.74L90.56 216.67V190.33C91.68 182.38 93.56 175.33 96.07 171.67C95.9927 168.611 96.7424 165.588 98.24 162.92C98.35 163 98.48 163.07 98.59 163.16C107.93 169.24 111.22 187.16 111.86 200.45C111.95 197.07 114.09 184 115.71 184.25C117.8 184.57 121.32 208.62 121.32 208.62C125.48 187.99 112.05 163.11 110.97 161.13C123.25 178.13 125.33 197.57 125.33 197.57L144.41 183.57C144.41 183.57 155.9 172.02 151.93 152.14C147.96 132.26 140.87 129.59 140.87 129.59C142.938 129.164 145.072 129.164 147.14 129.59C147.14 129.59 180.66 181.39 144.89 206.06Z" fill="url(#paint11_linear_230_382)"/>
<path d="M224.59 109.59C224.537 109.627 224.493 109.675 224.46 109.73C224.057 110.23 223.561 110.648 223 110.96C215.77 114.65 196.54 113.69 186.12 104.55C182.362 101.144 179.217 97.1193 176.82 92.65C176.824 92.6335 176.824 92.6165 176.82 92.6C173.04 85.71 170.89 78.6 168.82 73.6C165.45 65.6 162.69 52.17 163.37 44.42C164.01 37.21 165.45 31.11 175.24 22.77C185.03 14.43 209.08 13.95 215.17 22.29C221.26 30.63 221.1 49.39 222.55 53.56C224 57.73 229.12 62.7 230.55 68.31C231.86 73.49 230.46 102.26 224.59 109.59Z" fill="url(#paint12_linear_230_382)"/>
<path d="M224.65 57.58C224.65 57.58 224.34 62.58 220.43 62.93C217.37 63.21 215.5 58.68 215.5 58.68C215.5 58.68 214.95 46.43 216.5 40.4L217.95 35.59C216.571 34.2611 214.931 33.2334 213.134 32.5724C211.336 31.9113 209.421 31.6312 207.51 31.75C201.26 32.3 199.01 38.99 199.01 38.99C199.01 38.99 204.56 54.88 203.76 62.54C200.62 65.1427 196.583 66.407 192.52 66.06C184.35 65.5 180.25 60.65 180.25 60.65C180.25 60.65 175.79 65.85 174.94 70.27C173.94 75.55 175.68 92.27 175.68 92.27C175.68 92.27 170.07 74.15 168.54 68.86C167.01 63.57 164.21 40.07 165.9 36.06C167.59 32.05 172.45 19.01 193.27 16.39C214.09 13.77 217.96 20.8 217.96 20.8L220.11 31.14V36.47C220.11 36.47 221.57 50.22 222.11 52.53C222.655 54.3487 223.515 56.0579 224.65 57.58Z" fill="url(#paint13_linear_230_382)"/>
<path d="M220.19 37.04C219.609 32.1166 218.056 27.3578 215.62 23.04C212.3 26.2574 208.322 28.7172 203.96 30.25C205.769 28.5742 207.413 26.7291 208.87 24.74C205.454 27.2945 201.745 29.4298 197.82 31.1C197.82 31.1 199.63 28.34 199.63 27.1C199.63 25.86 195.06 20.61 189.76 20.73C185.51 21.037 181.405 22.4089 177.824 24.7192C174.243 27.0295 171.302 30.204 169.27 33.95C164.27 43.57 169.27 44.46 172.06 46.95C171.254 54.2245 170.893 61.5415 170.98 68.86C171.038 71.5449 171.315 74.2205 171.81 76.86C171.88 77.23 171.97 77.57 172.06 77.86L164.84 71.26C164.549 67.5432 163.583 63.9105 161.99 60.54C161.69 59.81 161.33 59.06 160.99 58.29V58.22C160.84 57.92 160.68 57.62 160.51 57.3C158.78 54.07 153.51 48.04 154.24 41.9C154.96 36.12 165.47 31.16 168.04 27.3C168.04 27.3 159.98 29.88 156.16 33.72C156.623 31.4548 157.905 29.4397 159.76 28.06C162.76 26.06 165.26 27.29 169.6 25.53C173.94 23.77 179.83 9.18 186.8 3.65C193.77 -1.88 209.8 -0.8 214.95 3.65C216.213 4.75554 217.251 6.09305 218.01 7.59C218.01 7.59 218.01 7.59 218.01 7.65C219.321 10.2903 220.067 13.1751 220.2 16.12C220.2 16.12 223.2 28.59 220.19 37.04Z" fill="url(#paint14_linear_230_382)"/>
<path d="M101.12 169.98L96.07 171.66C96.07 171.66 72.98 157.96 65.52 124.66C65.52 124.66 71.29 114.66 71.52 111.06C71.75 107.46 68.07 99.92 66.95 90.46C65.83 81 68.07 73.78 67.95 72.66C67.83 71.54 62.0201 71.37 60.4201 76.02C58.8201 80.67 61.2201 89.02 60.4201 90.62C59.5909 92.1128 58.6795 93.5583 57.69 94.95C57.69 94.95 49.19 82.12 46.95 80.84C44.71 79.56 41.17 85.84 39.57 86.14C37.97 86.44 32.11 78.35 26.46 73.66C20.81 68.97 10.22 59.11 9.14002 59.35C8.06002 59.59 6.61005 61.51 6.86005 63.44C7.11005 65.37 11.67 73.78 18.64 77.15C18.64 77.15 27.06 82.92 31.51 90.74C31.51 90.74 29.59 93.98 28.26 94.11C26.93 94.24 19.36 89.17 13.35 86.77C7.34004 84.37 1.80003 82.77 0.840034 83.16C-0.119966 83.55 0.240034 85.69 0.840034 87.16C1.44003 88.63 6.84001 92.81 12.75 94.26C12.75 94.26 21.53 97.74 24.41 101.35C24.41 101.35 24.05 104.96 23.09 105.56C22.13 106.16 14.91 105.08 10.46 104.48C6.01003 103.88 0.860007 104.6 0.250007 105.2C-0.359993 105.8 0.120049 107.85 3.73005 109.2C7.34005 110.55 11.67 109.68 12.39 109.8C13.11 109.92 26.22 114.01 27.78 114.97C29.34 115.93 36.21 126.18 41.14 129.31C46.07 132.44 53.14 130.85 53.14 130.85C53.14 130.85 61.04 175.19 64.89 192.85C68.74 210.51 83.49 228.77 96.32 229.57C96.32 229.57 107.86 225.08 108.51 201.35C109.16 177.62 101.12 169.98 101.12 169.98Z" fill="url(#paint15_linear_230_382)"/>
<path d="M240.15 219.21C240.15 219.21 235.35 244.31 241.6 271.49C241.6 271.49 245.44 274.13 245.93 277.49C245.928 277.51 245.928 277.53 245.93 277.55C246.193 279.697 246.105 281.872 245.67 283.99C246.861 285.236 247.914 286.607 248.81 288.08C249.084 288.561 249.244 289.098 249.28 289.65C249.288 291.593 248.882 293.516 248.09 295.29C248.09 295.29 245.19 302.75 215.09 305.39C197.117 306.964 179.275 309.778 161.69 313.81C161.69 313.81 159.88 307.81 163.19 303.23C163.19 303.23 158.07 298.66 158.31 296.97C158.55 295.28 169.63 276.05 166.74 262.58C163.85 249.11 153.03 238.18 147.02 211.89C147.02 211.89 143.02 210.54 142.76 208.61C142.5 206.68 144.53 203.56 144.53 203.56L145.25 204.93C145.25 204.93 158.96 197.07 155.25 163.88C151.54 130.69 147.67 128.66 140.8 129.58C140.8 129.58 146.27 124.52 147.55 124.63C148.83 124.74 149.32 127.11 149.32 127.11C152.345 128.158 155.635 128.158 158.66 127.11C161.791 125.981 164.664 124.237 167.11 121.98C167.11 121.98 197.57 147.77 210.93 146.19C226.19 144.39 215.43 127.69 215.43 127.69C215.43 127.69 225.01 129.56 230.14 130.75C235.27 131.94 237.2 130.75 237.2 130.75C237.2 130.75 240.2 126.22 244.26 129.25C248.32 132.28 253.26 148.96 251.63 175.9C250 202.84 240.15 219.21 240.15 219.21Z" fill="url(#paint16_linear_230_382)"/>
<path d="M188.11 57.04C187.635 58.5553 187.502 60.157 187.72 61.73C188.14 63.96 196.14 66.13 199.94 62.73C203.74 59.33 188.11 57.04 188.11 57.04Z" fill="#E87A8D"/>
<path d="M348.89 169.98C338.95 196.6 311.68 253.21 311.68 253.21C275.76 260.1 242.08 254.33 242.08 254.33L240.15 251.22C252.65 213.38 279.61 164.05 279.61 164.05C312.61 162.29 347.61 167.57 347.61 167.57L348.89 169.98Z" fill="url(#paint17_linear_230_382)"/>
<path style="mix-blend-mode:multiply" opacity="0.62" d="M317.05 210.03C317.05 210.03 315.53 227.91 319.7 236.31L336.1 200.53L328.27 202.39L329.27 206C324.872 206.011 320.592 207.423 317.05 210.03Z" fill="url(#paint18_linear_230_382)"/>
<path d="M334.93 200.53C334.93 200.53 337.54 202.6 338.06 204.3C338.58 206 339.34 210.78 333.97 212.23L331.56 212.88C331.56 212.88 333.33 213.68 333.65 214.88C333.97 216.08 331.96 218.73 328.76 219.37C325.56 220.01 320.18 218.73 318.57 217.29C316.96 215.85 318.01 213.84 320.42 213.29C320.42 213.29 316.89 212.49 317.05 210.04C317.21 207.59 325.31 204.95 333.89 205.75L334.93 200.53Z" fill="url(#paint19_linear_230_382)"/>
<path d="M216.27 59.39C216.733 60.0275 217.379 60.5093 218.121 60.7718C218.864 61.0343 219.669 61.0651 220.43 60.86C223.3 60.25 223.04 55.27 222.52 53.52C222 51.77 216.27 57.81 216.27 59.39Z" fill="#E87A8D"/>
<path d="M341.43 188.33C341.43 188.33 345.76 192.33 345.76 195.11C345.76 197.89 339.38 201.37 328.44 202.73C328.142 202.033 327.988 201.283 327.988 200.525C327.988 199.767 328.142 199.017 328.44 198.32C329.44 196.04 334.93 192.83 339.44 192.11L341.43 188.33Z" fill="url(#paint20_linear_230_382)"/>
<path d="M328.81 220.97C328.81 220.97 321.38 220.25 322.02 227.04C324.422 227.365 326.862 227.267 329.23 226.75C332.23 225.86 331.87 223.54 331.63 222.75C331.39 221.96 331.13 221.29 328.81 220.97Z" fill="url(#paint21_linear_230_382)"/>
<path d="M179.9 52.11C180.592 49.1453 182.114 46.4394 184.29 44.31C187.01 41.49 192.29 38.64 195.97 37.2C196.391 38.2963 196.585 39.4666 196.54 40.64C196.54 40.64 197.14 38.52 197.66 36.51C198.26 38.4084 198.468 40.4089 198.27 42.39C198.27 42.39 195.04 43.53 189.73 44.97C185.712 46.1125 182.229 48.6423 179.9 52.11Z" fill="url(#paint22_linear_230_382)"/>
<path d="M215.5 57.04C215.5 57.04 215.5 46.9 218.45 46.34C220.91 45.87 222.07 51.6 222.07 51.6L215.5 57.04Z" fill="#77485E"/>
<path d="M187.72 59.93C187.72 59.93 187.62 52.8 193.45 50.28C199.28 47.76 201.3 55.94 201.3 55.94L187.72 59.93Z" fill="#77485E"/>
<path d="M201.91 59.92C201.75 61.41 199.74 64.06 195.41 64.06C191.56 64.06 187.7 62.13 187.72 59.92C187.742 59.071 187.933 58.2349 188.28 57.46C189.147 55.4424 190.632 53.7514 192.52 52.63C193.768 51.8616 195.229 51.5113 196.69 51.63C201.35 52.11 202.06 58.45 201.91 59.92Z" fill="url(#paint23_linear_230_382)"/>
<path d="M222.59 54.88C222.65 58.18 221.22 60.7 218.71 60.65C218.311 60.6749 217.912 60.6136 217.54 60.4704C217.167 60.3272 216.829 60.1053 216.55 59.82C216.153 59.3057 215.879 58.7069 215.75 58.07C215.66 57.75 215.57 57.41 215.49 57.07C215.672 55.1554 216.041 53.2631 216.59 51.42C216.758 50.8984 216.965 50.3903 217.21 49.9C217.49 49.1964 218.026 48.6249 218.71 48.3C220.66 47.56 222.54 51.57 222.59 54.88Z" fill="url(#paint24_linear_230_382)"/>
<path d="M39.5401 86.12C36.6298 90.2088 33.9587 94.4625 31.5401 98.86C27.9901 105.27 27.7301 114.86 27.7301 114.86C25.1999 113.704 22.5857 112.741 19.9101 111.98C17.1501 111.37 26.6601 96.7 26.6601 96.7L37.46 84.8L39.5401 86.12Z" fill="url(#paint25_linear_230_382)"/>
<path d="M198.27 57.59C198.27 58.9161 197.743 60.1879 196.806 61.1255C195.868 62.0632 194.596 62.59 193.27 62.59C191.944 62.59 190.672 62.0632 189.734 61.1255C188.797 60.1879 188.27 58.9161 188.27 57.59C188.261 57.5472 188.261 57.5028 188.27 57.46C189.137 55.4424 190.622 53.7514 192.51 52.63C192.762 52.5943 193.016 52.5743 193.27 52.57C193.928 52.57 194.58 52.7 195.188 52.9525C195.796 53.205 196.348 53.5751 196.813 54.0415C197.277 54.508 197.645 55.0615 197.895 55.6705C198.145 56.2794 198.273 56.9317 198.27 57.59Z" fill="url(#paint26_radial_230_382)"/>
<path d="M196.74 57.58C196.74 58.2663 196.537 58.9372 196.155 59.5078C195.774 60.0785 195.232 60.5232 194.598 60.7858C193.964 61.0485 193.266 61.1172 192.593 60.9833C191.92 60.8494 191.302 60.5189 190.816 60.0336C190.331 59.5484 190.001 58.9301 189.867 58.2569C189.733 57.5838 189.802 56.8861 190.064 56.2521C190.327 55.618 190.772 55.0761 191.342 54.6948C191.913 54.3135 192.584 54.11 193.27 54.11C194.19 54.11 195.073 54.4756 195.724 55.1263C196.374 55.7771 196.74 56.6597 196.74 57.58Z" fill="url(#paint27_linear_230_382)"/>
<path d="M220.43 54.87C220.43 57.64 218.91 59.87 217.03 59.87C216.871 59.8902 216.709 59.8902 216.55 59.87C216.153 59.3557 215.879 58.7569 215.75 58.12C215.66 57.8 215.57 57.46 215.49 57.12C215.672 55.2054 216.041 53.3132 216.59 51.47C216.758 50.9485 216.965 50.4404 217.21 49.95C219.01 50.01 220.43 52.19 220.43 54.87Z" fill="url(#paint28_radial_230_382)"/>
<path d="M12.72 94.21C12.72 94.21 16.09 95.41 17.59 95.05C19.09 94.69 19.87 91.41 19.87 91.05C19.87 90.69 15.56 87.77 15.56 87.77L21.02 90.52L26.37 84.2C24.2959 81.6309 21.8527 79.3832 19.12 77.53C19.12 77.53 23.48 80.17 24.81 79.21C25.3616 78.7636 25.8132 78.2062 26.1354 77.5739C26.4575 76.9416 26.6431 76.2487 26.68 75.54C26.68 74.64 22.22 70.07 22.22 70.07C22.22 70.07 28.93 75.56 29.48 76.48C30.03 77.4 26.27 90.7 26.27 90.7L19.02 97.26C19.02 97.26 14.7 95.23 12.72 94.21Z" fill="url(#paint29_linear_230_382)"/>
<path d="M219.02 54.87C219.02 56.79 218.02 58.33 216.66 58.33C216.339 58.3228 216.026 58.2332 215.75 58.07C215.66 57.75 215.57 57.41 215.49 57.07C215.672 55.1554 216.041 53.2631 216.59 51.42H216.66C217.97 51.39 219.02 52.95 219.02 54.87Z" fill="url(#paint30_linear_230_382)"/>
<path d="M216.7 37.12C216.7 37.12 214.02 51.39 215.5 58.68C215.5 58.68 214.63 47.68 217.96 39.9L216.7 37.12Z" fill="#E87A8D"/>
<path d="M216.18 42.49C216.18 42.49 216.5 37.68 217.18 33.59L217.66 35.27L219.06 31.75C219.06 31.75 222.68 33.95 220.46 38.67C220.5 38.67 218.19 38.39 216.18 42.49Z" fill="url(#paint31_linear_230_382)"/>
<path d="M202.19 77.39C202.19 77.39 202.49 80.65 208.5 82.49C214.51 84.33 219.66 83.2 221.5 81.12C220.049 82.6846 218.13 83.737 216.03 84.12C212.5 84.76 207.16 83.93 204.64 82C201.88 79.87 201.32 78 201.32 78L202.19 77.39Z" fill="#E87A8D"/>
<path d="M199.58 78.79C201.336 77.9087 203.198 77.2567 205.12 76.85C203.788 76.5764 202.422 76.5089 201.07 76.65C199.78 76.97 199.58 78.79 199.58 78.79Z" fill="#E37E7F"/>
<path d="M205.76 69.91C205.76 69.91 209.93 69.91 213.76 70.15C217.59 70.39 221.14 69.91 222.58 68.87C222.543 70.373 222.098 71.8377 221.293 73.1075C220.488 74.3774 219.353 75.4048 218.01 76.08C216.735 76.5054 215.355 76.5054 214.08 76.08C212.615 74.6933 210.77 73.7743 208.78 73.44C208.78 73.44 205.6 72.48 205.76 69.91Z" fill="url(#paint32_linear_230_382)"/>
<path d="M213.37 62.59C208.37 63.28 205.76 69.91 205.76 69.91L215.14 71.51C217.816 71.3045 220.39 70.3936 222.6 68.87C222.6 68.87 218.35 61.89 213.37 62.59Z" fill="url(#paint33_linear_230_382)"/>
<path d="M208.5 73.32C208.5 73.32 208.97 72.89 210.5 72.98C212.03 73.07 213.5 75.55 213.5 75.55C212.036 74.417 210.321 73.6522 208.5 73.32Z" fill="#9F4A8B"/>
<path d="M36.79 61.03L21.18 90.03C21.18 90.03 17.18 106.84 9.69 113.46C9.69 113.46 8.82999 116.68 10.99 121.53L43.83 60.46C43.83 60.46 39.91 58.8 36.79 61.03Z" fill="url(#paint34_linear_230_382)"/>
<path d="M47.27 66.65L31.67 95.65C31.67 95.65 19.87 108.28 18.46 118.15C18.46 118.15 16.25 120.65 11.01 121.52L43.85 60.45C43.85 60.45 47.38 62.82 47.27 66.65Z" fill="url(#paint35_linear_230_382)"/>
<path d="M10.38 119.97L12.63 121.19C12.63 121.19 10.72 123.61 10.07 123.26C9.41998 122.91 10.38 119.97 10.38 119.97Z" fill="url(#paint36_linear_230_382)"/>
<path d="M9.69 113.47L18.44 118.17C18.44 118.17 19.44 109.71 31.65 95.67L21.18 90.04C21.18 90.04 18.76 103.05 9.69 113.47Z" fill="url(#paint37_linear_230_382)"/>
<path d="M49.48 83.48C49.48 83.48 44.35 77.13 39.86 70.07C35.37 63.01 27.27 51.63 24.51 52.83C21.75 54.03 24.14 61.25 26.67 65.83C29.2 70.41 32.44 72.09 33.89 74.49C35.34 76.89 39.54 86.13 39.54 86.13C39.54 86.13 46.07 87.68 49.48 83.48Z" fill="url(#paint38_linear_230_382)"/>
<path d="M288.78 256.1C288.78 256.1 286.78 265.84 287.62 266.44C288.46 267.04 293.2 255.76 293.2 255.76L288.78 256.1Z" fill="url(#paint39_linear_230_382)"/>
<path d="M259.27 465.84L258.64 465.78C258.64 465.44 262.48 432.23 302.89 420.19C325.01 413.6 339.71 398.28 343.23 378.19C344.878 368.27 343.752 358.088 339.975 348.768C336.198 339.448 329.919 331.354 321.83 325.38C289.6 301.58 287.37 266.84 287.35 266.49H287.98C287.98 266.84 290.23 301.28 322.21 324.9C330.391 330.947 336.742 339.136 340.563 348.565C344.383 357.993 345.524 368.294 343.86 378.33C340.29 398.71 325.43 414.21 303.08 420.87C263.02 432.72 259.27 465.51 259.27 465.84Z" fill="url(#paint40_linear_230_382)"/>
<path d="M171.35 75.64C171.35 75.64 163.35 67.72 158.65 72.2C153.01 77.52 157 89.2 163.24 94.29C168.65 98.68 174.49 97.51 175.69 92.29C175.69 92.28 177.34 80.47 171.35 75.64Z" fill="url(#paint41_linear_230_382)"/>
<path d="M171.14 83.1C171.14 83.1 166.46 77.61 162.6 79.02C158.74 80.43 159.85 86.58 159.85 86.58C159.85 86.58 159.85 82.08 162.4 81.41C164.95 80.74 166.4 83.97 166.4 83.97C166.4 83.97 165.06 84.08 165.11 87.88C165.16 91.68 169.59 95.2 171.34 92.52C173.09 89.84 171.14 83.1 171.14 83.1Z" fill="#E87A8D"/>
<path d="M199.02 57.88C199.02 58.0461 198.971 58.2085 198.879 58.3467C198.786 58.4848 198.655 58.5925 198.501 58.656C198.348 58.7196 198.179 58.7363 198.016 58.7038C197.853 58.6714 197.704 58.5914 197.586 58.474C197.469 58.3565 197.389 58.2068 197.356 58.0439C197.324 57.8809 197.34 57.712 197.404 57.5585C197.468 57.405 197.575 57.2738 197.713 57.1815C197.851 57.0892 198.014 57.04 198.18 57.04C198.291 57.0386 198.401 57.0595 198.503 57.1012C198.606 57.1429 198.699 57.2047 198.777 57.283C198.855 57.3613 198.917 57.4544 198.959 57.5569C199.001 57.6595 199.021 57.7693 199.02 57.88Z" fill="white"/>
<path d="M221.53 54.96C221.53 55.1281 221.48 55.2924 221.387 55.4322C221.293 55.572 221.161 55.681 221.005 55.7453C220.85 55.8096 220.679 55.8265 220.514 55.7937C220.349 55.7609 220.198 55.6799 220.079 55.561C219.96 55.4421 219.879 55.2907 219.846 55.1258C219.814 54.9609 219.83 54.79 219.895 54.6347C219.959 54.4794 220.068 54.3466 220.208 54.2532C220.348 54.1598 220.512 54.11 220.68 54.11C220.905 54.11 221.122 54.1995 221.281 54.3589C221.44 54.5184 221.53 54.7346 221.53 54.96Z" fill="white"/>
<path d="M179.56 105.45C179.56 105.45 192.06 129.73 213.82 127.56C213.82 127.56 211.88 119.05 212.09 112.98C212.09 112.98 201.95 112.71 194.44 109.59C185.98 106.09 179.57 97.1 179.57 97.1L179.56 105.45Z" fill="url(#paint42_linear_230_382)"/>
<path d="M49.48 118.82C43.58 120.51 32.61 115.32 31.65 110.32C30.69 105.32 38.1 91.8 44.71 92.64C51.32 93.48 54.51 98.36 53.13 102.74C51.55 107.77 52.85 117.86 49.48 118.82Z" fill="url(#paint43_linear_230_382)"/>
<path d="M57.66 94.93C57.66 94.93 51.09 105.87 51.66 114.93C51.66 114.93 49.93 101.87 56.06 92.64L57.66 94.93Z" fill="url(#paint44_linear_230_382)"/>
<path d="M53.13 130.77C53.13 130.77 59.26 129.57 61.79 127.77L54.56 138.77C54.56 138.77 53.6 134.39 53.13 130.77Z" fill="url(#paint45_linear_230_382)"/>
<path d="M96.07 171.66C96.07 171.66 100.35 176.72 103.2 196.6C106.05 216.48 98.2 228.33 98.2 228.33C98.2 228.33 106.14 226.83 108.51 203.57C110.88 180.31 101.1 169.98 101.1 169.98L96.07 171.66Z" fill="url(#paint46_linear_230_382)"/>
<path style="mix-blend-mode:multiply" opacity="0.62" d="M248.1 295.3C248.1 295.3 245.2 302.76 215.1 305.4C197.127 306.975 179.285 309.788 161.7 313.82C161.7 313.82 159.89 307.82 163.2 303.24C163.2 303.24 158.08 298.67 158.32 296.98C158.56 295.29 169.64 276.06 166.75 262.59C163.86 249.12 153.04 238.19 147.03 211.9C147.03 211.9 143.03 210.55 142.77 208.62C142.51 206.69 144.54 203.57 144.54 203.57L145.26 204.94C145.26 204.94 158.97 197.08 155.26 163.89C151.55 130.7 147.68 128.67 140.81 129.59C140.81 129.59 146.28 124.53 147.56 124.64C147.56 124.64 155.71 130.77 161.34 163.64C166.05 191.21 173.88 208.43 173.88 208.43C184.659 212.097 195.997 213.846 207.38 213.6C225.44 213 223.6 210.72 239.45 211.86C239.45 211.86 205.21 215.52 192.23 217.86C183.736 219.498 175.415 221.936 167.38 225.14C167.38 225.14 178.38 250.77 176.59 267.84C175.703 275.549 173.761 283.099 170.82 290.28C170.82 290.28 173.08 291.17 195.16 290.22C217.24 289.27 245.87 277.46 245.87 277.46C245.868 277.48 245.868 277.5 245.87 277.52C246.26 279.66 246.171 281.859 245.61 283.96C245.61 283.96 223.61 288.77 203.2 292.62C182.79 296.47 170.81 302.72 170.81 302.72C170.81 302.72 174.97 305.05 206.7 301.6C238.43 298.15 247.6 296.04 249.21 289.6C249.252 291.557 248.873 293.501 248.1 295.3Z" fill="url(#paint47_linear_230_382)"/>
<path style="mix-blend-mode:multiply" opacity="0.62" d="M163.27 219.23C163.27 219.23 167.03 214.23 175.72 212.8C184.41 211.37 198.19 214.74 206.72 214.72C206.72 214.72 183.01 219.21 174.02 220.49C165.03 221.77 163.27 219.23 163.27 219.23Z" fill="url(#paint48_linear_230_382)"/>
<path style="mix-blend-mode:multiply" opacity="0.62" d="M237.27 130.76C237.27 130.76 245.93 145.92 247.53 178.32C247.53 178.32 248.97 152.71 240.15 128.47C238.979 128.922 237.974 129.721 237.27 130.76Z" fill="url(#paint49_linear_230_382)"/>
<path style="mix-blend-mode:multiply" opacity="0.62" d="M236.07 144.39C236.07 144.39 233.43 163.39 212.86 190.65C212.86 190.65 226.32 179.74 231.05 169.17C236.07 157.95 236.07 144.39 236.07 144.39Z" fill="url(#paint50_linear_230_382)"/>
<path style="mix-blend-mode:multiply" opacity="0.62" d="M184.94 266.46C189.439 272.828 196.265 277.168 203.94 278.54C216.94 280.95 234.25 276.46 234.25 276.46C234.25 276.46 217.57 279.35 205.07 275.18C198.089 272.945 191.346 270.024 184.94 266.46Z" fill="url(#paint51_linear_230_382)"/>
<path style="mix-blend-mode:multiply" opacity="0.5" d="M142.27 191.62C142.27 191.62 152.01 187.62 155.76 180.32C155.76 180.32 155.18 198.37 145.32 204.94C143.887 200.606 142.866 196.146 142.27 191.62Z" fill="url(#paint52_linear_230_382)"/>
<path style="mix-blend-mode:multiply" opacity="0.62" d="M208.72 357.28L213.86 338.52C213.86 338.52 222.77 325.61 237.24 319.72L222.98 341.57L208.72 357.28Z" fill="url(#paint53_linear_230_382)"/>
<path style="mix-blend-mode:multiply" opacity="0.62" d="M176.65 437.94C174.49 440.36 170.16 442.51 170.16 442.51C167.75 447.08 162.69 465.81 162.69 465.81H123.97C126.13 455.91 135.97 441.08 139.13 435.54C142.29 430 154.04 392.24 157.13 367.23C158.44 356.81 159.44 345.8 160.18 336.49C160.18 337.2 161.5 344.49 157.76 379.79C153.91 416.04 151.28 431.7 151.6 434.9C151.92 438.1 167.67 445.8 176.65 437.94Z" fill="url(#paint54_linear_230_382)"/>
<path style="mix-blend-mode:multiply" opacity="0.62" d="M252.01 433.03C251.01 436.57 249.68 439.23 249.01 442.27C247.9 447.08 246.61 465.81 246.61 465.81H212.89C214.17 458.88 215.77 453.51 217.7 436.18C219.54 419.61 209.64 362.51 208.79 357.62C209.91 362.87 222.35 422.1 225.16 427.12C231.27 438.03 247.8 441.71 252.01 433.03Z" fill="url(#paint55_linear_230_382)"/>
<path d="M348.89 169.98C300.29 163.72 280.53 166.61 280.53 166.61C263.15 196.38 242.08 254.33 242.08 254.33L240.15 251.22C252.65 213.38 279.61 164.05 279.61 164.05C312.61 162.29 347.61 167.57 347.61 167.57L348.89 169.98Z" fill="url(#paint56_linear_230_382)"/>
<path d="M331.56 212.88C327.862 213.288 324.138 213.421 320.42 213.28C320.42 213.28 327.04 214.48 332.42 213.36L331.56 212.88Z" fill="url(#paint57_linear_230_382)"/>
<path style="mix-blend-mode:multiply" opacity="0.83" d="M167.34 133.3C167.34 133.4 167.4 133.49 167.44 133.59C167.39 133.45 167.35 133.39 167.34 133.3Z" fill="url(#paint58_linear_230_382)"/>
<path style="mix-blend-mode:soft-light" d="M170.88 290.32C170.88 290.32 182.61 290.7 206.77 286.4C232.46 281.83 241.6 271.49 241.6 271.49C241.6 271.49 245.29 273.89 245.93 277.49C245.93 277.49 224.13 286.69 206.77 288.94C189.41 291.19 174.4 291.39 170.88 290.32Z" fill="url(#paint59_linear_230_382)"/>
<path style="mix-blend-mode:soft-light" d="M195.9 302.69C195.9 302.69 210.45 300.39 226.68 296.39C242.91 292.39 248.82 288.1 248.82 288.1C248.82 288.1 251.5 293.32 240.82 296.33C230.14 299.34 195.9 302.69 195.9 302.69Z" fill="url(#paint60_linear_230_382)"/>
<path style="mix-blend-mode:soft-light" opacity="0.5" d="M261.78 205L314.13 248.09L311.68 253.21C311.68 253.21 278.68 260.02 242.08 254.33L240.15 251.22C240.15 251.22 251.96 219.64 259.88 203.22L261.78 205Z" fill="url(#paint61_linear_230_382)"/>
<path style="mix-blend-mode:multiply" opacity="0.62" d="M161.52 349.59C159.705 367.572 160.52 385.723 163.94 403.47L161.52 349.59Z" fill="url(#paint62_linear_230_382)"/>
<path style="mix-blend-mode:multiply" opacity="0.62" d="M215.38 355.68C215.38 355.68 224.29 390.96 231.51 405.95C231.51 405.95 217.3 386.47 212.14 373.32L208.79 357.62L212.86 340.77L215.38 355.68Z" fill="url(#paint63_linear_230_382)"/>
<path d="M215.5 127.7L213.82 127.56C213.82 127.56 217.29 133.11 218.01 137.68C218.73 142.25 215.7 145.2 211.01 146.2C211.01 146.2 218.58 145.76 219.55 140.55C220.52 135.34 215.5 127.7 215.5 127.7Z" fill="url(#paint64_linear_230_382)"/>
<path d="M161.61 33.03C161.61 33.03 153.55 37.68 153.3 43.81C153.05 49.94 158.3 53.9 158.3 53.9L159.01 50.59C161.598 50.9341 164.231 50.6879 166.71 49.87C168.675 49.2191 170.514 48.2385 172.15 46.97C172.15 46.97 167.41 44.18 167.3 39.55C167.19 34.92 175.39 26.55 175.39 26.55L168.04 27.41C165.796 29.1647 163.649 31.0408 161.61 33.03Z" fill="url(#paint65_linear_230_382)"/>
<path style="mix-blend-mode:multiply" opacity="0.84" d="M199.63 27.09C199.63 27.09 207.01 19.09 208.5 13.46C209.99 7.83001 204.06 5.12 204.06 5.12C204.06 5.12 206.16 7.45999 205.75 12.82C205.34 18.18 199.63 27.09 199.63 27.09Z" fill="url(#paint66_linear_230_382)"/>
<path style="mix-blend-mode:multiply" opacity="0.84" d="M176.66 25.52C176.66 25.52 184.17 12.39 191.27 12.18C198.37 11.97 200.38 25.01 199.67 27.09C199.67 27.09 199.46 21.95 190.67 21.69C181.88 21.43 176.66 25.52 176.66 25.52Z" fill="url(#paint67_linear_230_382)"/>
<path style="mix-blend-mode:multiply" opacity="0.84" d="M215.62 23C215.62 23 219.49 18.06 220.19 16.26C220.74 18.7214 221.125 21.217 221.34 23.73C221.34 23.73 221.9 25.18 217.1 25.89L215.62 23Z" fill="url(#paint68_linear_230_382)"/>
<path style="mix-blend-mode:multiply" opacity="0.62" d="M164.88 71.39L177.76 60.67C177.76 60.67 178.25 70.85 187.15 72.67C196.05 74.49 202.68 71.56 205.15 65.94C207.62 60.32 208.03 52.51 208.03 52.51C208.03 52.51 208.62 51.6 211.47 51.63C212.911 51.5338 214.341 51.9364 215.52 52.77V47.93C215.52 47.93 209.62 47.02 207.07 49.1C207.07 49.1 207.95 64.71 202.38 68.58C196.81 72.45 192.09 72.94 186.13 69.92C181.52 67.58 179.59 60.14 181.02 55.84L176.69 56.71L164.35 71.21L164.88 71.39Z" fill="url(#paint69_linear_230_382)"/>
<path d="M206.02 48.02C203.58 44.79 186.64 47.84 181.89 53.1C177.14 58.36 183.23 68.77 190.77 70.26C199.58 71.99 203.77 69.15 206.16 65.42C208.74 61.49 208.27 50.95 206.02 48.02ZM205.9 63.61C203.9 69.09 196.63 70.93 190.49 69.3C186.71 68.3 180.25 62.42 181.7 55.81C183.15 49.2 202.7 46.34 205.12 48.86C207.04 50.9 207.89 58.13 205.9 63.61Z" fill="url(#paint70_linear_230_382)"/>
<path d="M206.47 47.97C204.04 44.73 187.1 47.79 182.35 53.05C177.6 58.31 183.69 68.72 191.23 70.2C200.04 71.94 204.18 69.09 206.62 65.37C209.2 61.44 208.68 50.9 206.47 47.97ZM206.36 63.56C204.36 69.04 197.09 70.88 190.95 69.25C187.16 68.25 180.71 62.37 182.15 55.76C183.59 49.15 203.15 46.29 205.57 48.76C207.5 50.85 208.34 58.08 206.36 63.56Z" fill="url(#paint71_linear_230_382)"/>
<path d="M227.39 46.31C225.95 43.93 217.71 44.84 215.66 46.31C214.32 47.31 215.05 58.8 218.66 63.66C219.35 64.7076 220.408 65.4577 221.625 65.7615C222.842 66.0653 224.129 65.9006 225.23 65.3C227.99 63.39 228.84 48.69 227.39 46.31ZM226.27 62.05C225.14 65.18 222.34 65.91 219.6 63.37C217.13 61.08 214.95 49.88 216.6 47.46C217.93 45.46 224.66 44.82 226.6 46.94C228.54 49.06 227.54 58.39 226.27 62.05Z" fill="url(#paint72_linear_230_382)"/>
<path d="M227.9 46.31C226.46 43.93 218.22 44.84 216.17 46.31C214.83 47.31 215.56 58.8 219.17 63.66C219.86 64.7076 220.918 65.4577 222.135 65.7615C223.352 66.0653 224.639 65.9006 225.74 65.3C228.51 63.39 229.35 48.69 227.9 46.31ZM226.74 62.05C225.61 65.18 222.81 65.91 220.07 63.37C217.6 61.08 215.42 49.88 217.07 47.46C218.41 45.46 225.13 44.82 227.07 46.94C229.01 49.06 228.05 58.39 226.74 62.05Z" fill="url(#paint73_linear_230_382)"/>
<path d="M207.27 49.61C208.471 48.7974 209.856 48.2993 211.299 48.1613C212.742 48.0233 214.197 48.2497 215.53 48.82C215.482 48.2547 215.554 47.6858 215.74 47.15C215.74 47.15 212.48 46.15 206.19 47.7C206.592 48.3117 206.953 48.9499 207.27 49.61Z" fill="url(#paint74_linear_230_382)"/>
<path d="M180.99 54.39L176.66 55.78L162.58 70.78C163.179 70.7263 163.782 70.8406 164.32 71.11L176.94 57.76C178.029 57.1773 179.257 56.9041 180.49 56.97C180.452 56.0827 180.623 55.1989 180.99 54.39Z" fill="url(#paint75_linear_230_382)"/>
<path d="M175.01 57.58L175.13 59.74L172.25 62.8L172.11 60.67L175.01 57.58Z" fill="url(#paint76_linear_230_382)"/>
<g style="mix-blend-mode:soft-light">
<path d="M207.33 47.45L208.07 48.23C209.475 47.9301 210.904 47.7594 212.34 47.72C213.213 47.6399 214.094 47.7178 214.94 47.95L215.49 47.08C212.775 46.6201 209.993 46.7462 207.33 47.45Z" fill="#D7E2FF"/>
</g>
<g style="mix-blend-mode:soft-light">
<path d="M217.41 45.71L217.86 46.31C217.86 46.31 220.79 44.58 225.57 45.71L225.45 45.04C222.754 44.6418 220.003 44.8711 217.41 45.71Z" fill="#D7E2FF"/>
</g>
<g style="mix-blend-mode:soft-light">
<path d="M199.02 47.52L199.25 46.84C199.25 46.84 204.65 46.28 206.12 47.78C207.59 49.28 208 52.48 208 52.48L207.33 52.57C207.33 52.57 206.82 49.18 205.18 48.18C203.54 47.18 199.02 47.52 199.02 47.52Z" fill="#D7E2FF"/>
</g>
<g style="mix-blend-mode:soft-light">
<path d="M187.15 67.18C187.15 67.18 189.99 70.72 196.48 70.18C198.329 70.0608 200.126 69.5193 201.733 68.597C203.34 67.6748 204.714 66.3963 205.75 64.86C204.673 66.3618 203.263 67.5945 201.63 68.4618C199.998 69.3291 198.188 69.8076 196.34 69.86C189.99 70.08 187.15 67.18 187.15 67.18Z" fill="#D7D9FF"/>
</g>
<g style="mix-blend-mode:soft-light">
<path d="M220.07 63.39C220.07 63.39 221.83 65.39 223.82 65.09C225.81 64.79 226.54 62.56 226.54 62.56C226.54 62.56 225.41 64.86 223.3 64.74C222.096 64.6939 220.949 64.2145 220.07 63.39Z" fill="#D7D9FF"/>
</g>
<path d="M194.05 69.82C194.636 70.1335 195.297 70.2789 195.96 70.24C196.958 70.2069 197.938 69.9686 198.84 69.54C197.257 69.7978 195.652 69.8916 194.05 69.82Z" fill="#D7D9FF"/>
<path d="M221.56 64.5C222.47 64.8139 223.46 64.8139 224.37 64.5C224.957 64.3096 225.483 63.9641 225.89 63.5C225.859 63.9165 225.678 64.3076 225.38 64.6002C225.081 64.8928 224.687 65.0669 224.27 65.09C223.327 65.1801 222.38 64.9739 221.56 64.5Z" fill="#D7D9FF"/>
<g style="mix-blend-mode:soft-light">
<path d="M189.09 68.77C189.09 68.77 188.85 63.56 195.02 59.93C196.799 58.8749 198.811 58.2737 200.878 58.1796C202.944 58.0854 205.002 58.5011 206.87 59.39C206.879 60.8077 206.608 62.2133 206.073 63.526C205.537 64.8388 204.748 66.033 203.75 67.04C200.43 70.14 193.19 70.31 189.09 68.77Z" fill="#D7D9FF"/>
</g>
<g style="mix-blend-mode:soft-light">
<path d="M218.79 61.39C218.79 61.39 222.94 56.1 227.61 54.44C227.61 54.44 227.51 61.6 225.89 63.5C224.27 65.4 221.18 66 218.79 61.39Z" fill="#D7D9FF"/>
</g>
<path style="mix-blend-mode:screen" d="M182.33 57.39C182.33 57.39 182.99 61.6 185.4 63.87L187.82 63.29C187.82 63.29 185.94 56.01 185.9 52.38C185.9 52.39 182.81 54.26 182.33 57.39Z" fill="url(#paint77_linear_230_382)"/>
<path d="M224.46 109.73C224.057 110.23 223.561 110.648 223 110.96C215.77 114.65 196.54 113.69 186.12 104.55C182.362 101.144 179.217 97.1193 176.82 92.65C181.301 99.3621 187.744 104.527 195.27 107.44C208.44 112.68 223.53 111.05 224.46 109.73Z" fill="url(#paint78_linear_230_382)"/>
</g>
<rect width="284" height="1" transform="matrix(1 0 0 -1 92 423)" fill="#0B60C9"/>
</g>
<defs>
<linearGradient id="paint0_linear_230_382" x1="263.72" y1="272.77" x2="263.72" y2="133.73" gradientUnits="userSpaceOnUse">
<stop stop-color="#744FD8"/>
<stop offset="1" stop-color="#3996F7"/>
</linearGradient>
<linearGradient id="paint1_linear_230_382" x1="260.18" y1="272.53" x2="260.18" y2="133.73" gradientUnits="userSpaceOnUse">
<stop stop-color="#9D68C2"/>
<stop offset="1" stop-color="#CCEDFF"/>
</linearGradient>
<linearGradient id="paint2_linear_230_382" x1="190.2" y1="465.81" x2="190.2" y2="293.77" gradientUnits="userSpaceOnUse">
<stop stop-color="#1C257B"/>
<stop offset="1" stop-color="#482C83"/>
</linearGradient>
<linearGradient id="paint3_linear_230_382" x1="206.77" y1="357.28" x2="206.77" y2="293.77" gradientUnits="userSpaceOnUse">
<stop stop-color="#8B8BE0"/>
<stop offset="1" stop-color="#A177B7"/>
</linearGradient>
<linearGradient id="paint4_linear_230_382" x1="289.75" y1="267.88" x2="289.75" y2="245.03" gradientUnits="userSpaceOnUse">
<stop offset="0.02" stop-color="#FFC2A9"/>
<stop offset="1" stop-color="#FF9595"/>
</linearGradient>
<linearGradient id="paint5_linear_230_382" x1="205.64" y1="315.49" x2="205.64" y2="293.77" gradientUnits="userSpaceOnUse">
<stop stop-color="#D1C8F8"/>
<stop offset="1" stop-color="#EEE5F9"/>
</linearGradient>
<linearGradient id="paint6_linear_230_382" x1="205.32" y1="315.49" x2="205.32" y2="293.77" gradientUnits="userSpaceOnUse">
<stop stop-color="#8B8BE0"/>
<stop offset="1" stop-color="#A177B7"/>
</linearGradient>
<linearGradient id="paint7_linear_230_382" x1="328.7" y1="225.18" x2="328.7" y2="217.91" gradientUnits="userSpaceOnUse">
<stop offset="0.02" stop-color="#FFA58B"/>
<stop offset="1" stop-color="#FF898E"/>
</linearGradient>
<linearGradient id="paint8_linear_230_382" x1="125.33" y1="231.37" x2="125.33" y2="129.26" gradientUnits="userSpaceOnUse">
<stop stop-color="#744FD8"/>
<stop offset="1" stop-color="#3996F7"/>
</linearGradient>
<linearGradient id="paint9_linear_230_382" x1="195.26" y1="158.02" x2="195.26" y2="97.1" gradientUnits="userSpaceOnUse">
<stop offset="0.02" stop-color="#FFA58B"/>
<stop offset="1" stop-color="#FF898E"/>
</linearGradient>
<linearGradient id="paint10_linear_230_382" x1="193.77" y1="150.53" x2="193.77" y2="121.99" gradientUnits="userSpaceOnUse">
<stop stop-color="#D1C8F8"/>
<stop offset="1" stop-color="#EEE5F9"/>
</linearGradient>
<linearGradient id="paint11_linear_230_382" x1="125.54" y1="231.37" x2="125.54" y2="129.26" gradientUnits="userSpaceOnUse">
<stop stop-color="#9D68C2"/>
<stop offset="1" stop-color="#CCEDFF"/>
</linearGradient>
<linearGradient id="paint12_linear_230_382" x1="197.12" y1="112.97" x2="197.12" y2="16.26" gradientUnits="userSpaceOnUse">
<stop offset="0.02" stop-color="#FFC2A9"/>
<stop offset="1" stop-color="#FF9595"/>
</linearGradient>
<linearGradient id="paint13_linear_230_382" x1="195.02" y1="92.28" x2="195.02" y2="15.86" gradientUnits="userSpaceOnUse">
<stop offset="0.02" stop-color="#FFA58B"/>
<stop offset="1" stop-color="#FF898E"/>
</linearGradient>
<linearGradient id="paint14_linear_230_382" x1="194.23" y1="74.47" x2="182.82" y2="2.39" gradientUnits="userSpaceOnUse">
<stop stop-color="#D49092"/>
<stop offset="0.13" stop-color="#D18E92"/>
<stop offset="0.2" stop-color="#C98991"/>
<stop offset="0.27" stop-color="#BB7F90"/>
<stop offset="0.32" stop-color="#A7718F"/>
<stop offset="0.37" stop-color="#8C5F8D"/>
<stop offset="0.42" stop-color="#6C498A"/>
<stop offset="0.46" stop-color="#472F88"/>
<stop offset="0.47" stop-color="#3E2987"/>
<stop offset="0.61" stop-color="#352278"/>
<stop offset="0.85" stop-color="#291762"/>
<stop offset="1" stop-color="#24135A"/>
</linearGradient>
<linearGradient id="paint15_linear_230_382" x1="54.26" y1="229.47" x2="54.26" y2="59.32" gradientUnits="userSpaceOnUse">
<stop offset="0.02" stop-color="#FFC2A9"/>
<stop offset="1" stop-color="#FF9595"/>
</linearGradient>
<linearGradient id="paint16_linear_230_382" x1="196.44" y1="313.82" x2="196.44" y2="121.99" gradientUnits="userSpaceOnUse">
<stop stop-color="#744FD8"/>
<stop offset="1" stop-color="#3996F7"/>
</linearGradient>
<linearGradient id="paint17_linear_230_382" x1="294.52" y1="256.59" x2="294.52" y2="163.69" gradientUnits="userSpaceOnUse">
<stop stop-color="#1C257B"/>
<stop offset="1" stop-color="#482C83"/>
</linearGradient>
<linearGradient id="paint18_linear_230_382" x1="326.44" y1="236.31" x2="326.44" y2="200.53" gradientUnits="userSpaceOnUse">
<stop stop-color="#8B8BE0"/>
<stop offset="1" stop-color="#A177B7"/>
</linearGradient>
<linearGradient id="paint19_linear_230_382" x1="327.74" y1="219.54" x2="327.74" y2="200.53" gradientUnits="userSpaceOnUse">
<stop offset="0.02" stop-color="#FFC2A9"/>
<stop offset="1" stop-color="#FF9595"/>
</linearGradient>
<linearGradient id="paint20_linear_230_382" x1="336.87" y1="202.73" x2="336.87" y2="188.33" gradientUnits="userSpaceOnUse">
<stop offset="0.02" stop-color="#FFC2A9"/>
<stop offset="1" stop-color="#FF9595"/>
</linearGradient>
<linearGradient id="paint21_linear_230_382" x1="326.89" y1="227.23" x2="326.89" y2="220.95" gradientUnits="userSpaceOnUse">
<stop offset="0.02" stop-color="#FFC2A9"/>
<stop offset="1" stop-color="#FF9595"/>
</linearGradient>
<linearGradient id="paint22_linear_230_382" x1="189.09" y1="52.11" x2="189.09" y2="36.51" gradientUnits="userSpaceOnUse">
<stop stop-color="#1C257B"/>
<stop offset="1" stop-color="#482C83"/>
</linearGradient>
<linearGradient id="paint23_linear_230_382" x1="194.82" y1="64.06" x2="194.82" y2="51.6" gradientUnits="userSpaceOnUse">
<stop stop-color="#D0C7F8"/>
<stop offset="1" stop-color="white"/>
</linearGradient>
<linearGradient id="paint24_linear_230_382" x1="219.04" y1="60.65" x2="219.04" y2="48.18" gradientUnits="userSpaceOnUse">
<stop stop-color="#D0C7F8"/>
<stop offset="1" stop-color="white"/>
</linearGradient>
<linearGradient id="paint25_linear_230_382" x1="19.4301" y1="99.86" x2="39.5401" y2="99.86" gradientUnits="userSpaceOnUse">
<stop stop-color="#CF6074"/>
<stop offset="1" stop-color="#FF817F"/>
</linearGradient>
<radialGradient id="paint26_radial_230_382" cx="0" cy="0" r="1" gradientUnits="userSpaceOnUse" gradientTransform="translate(193.43 59.61) scale(4.9 4.9)">
<stop stop-color="#CF95FF"/>
<stop offset="1" stop-color="#8161FF"/>
</radialGradient>
<linearGradient id="paint27_linear_230_382" x1="193.27" y1="61.05" x2="193.27" y2="54.11" gradientUnits="userSpaceOnUse">
<stop stop-color="#8642A0"/>
<stop offset="1" stop-color="#4E37B7"/>
</linearGradient>
<radialGradient id="paint28_radial_230_382" cx="0" cy="0" r="1" gradientUnits="userSpaceOnUse" gradientTransform="translate(218.04 56.89) scale(3.29 3.29)">
<stop stop-color="#CF95FF"/>
<stop offset="1" stop-color="#8161FF"/>
</radialGradient>
<linearGradient id="paint29_linear_230_382" x1="12.72" y1="83.64" x2="29.54" y2="83.64" gradientUnits="userSpaceOnUse">
<stop stop-color="#CF6074"/>
<stop offset="1" stop-color="#FF817F"/>
</linearGradient>
<linearGradient id="paint30_linear_230_382" x1="217.26" y1="58.33" x2="217.26" y2="51.39" gradientUnits="userSpaceOnUse">
<stop stop-color="#8642A0"/>
<stop offset="1" stop-color="#4E37B7"/>
</linearGradient>
<linearGradient id="paint31_linear_230_382" x1="218.7" y1="42.49" x2="218.7" y2="31.75" gradientUnits="userSpaceOnUse">
<stop stop-color="#1C257B"/>
<stop offset="1" stop-color="#482C83"/>
</linearGradient>
<linearGradient id="paint32_linear_230_382" x1="212.36" y1="75.52" x2="215.31" y2="66.49" gradientUnits="userSpaceOnUse">
<stop stop-color="#FF8883"/>
<stop offset="1" stop-color="#E8868D"/>
</linearGradient>
<linearGradient id="paint33_linear_230_382" x1="214.18" y1="71.51" x2="214.18" y2="62.54" gradientUnits="userSpaceOnUse">
<stop stop-color="#FF8883"/>
<stop offset="1" stop-color="#FFB1A4"/>
</linearGradient>
<linearGradient id="paint34_linear_230_382" x1="8.38999" y1="120.158" x2="41.2266" y2="59.0972" gradientUnits="userSpaceOnUse">
<stop stop-color="#1C257B"/>
<stop offset="1" stop-color="#482C83"/>
</linearGradient>
<linearGradient id="paint35_linear_230_382" x1="15.1916" y1="125.478" x2="47.7767" y2="64.4678" gradientUnits="userSpaceOnUse">
<stop stop-color="#1C257B"/>
<stop offset="1" stop-color="#482C83"/>
</linearGradient>
<linearGradient id="paint36_linear_230_382" x1="10.0774" y1="123.291" x2="11.5173" y2="120.613" gradientUnits="userSpaceOnUse">
<stop stop-color="#1C257B"/>
<stop offset="1" stop-color="#482C83"/>
</linearGradient>
<linearGradient id="paint37_linear_230_382" x1="14.0796" y1="115.849" x2="26.4318" y2="92.8794" gradientUnits="userSpaceOnUse">
<stop stop-color="#6A4FAC"/>
<stop offset="1" stop-color="#513689"/>
</linearGradient>
<linearGradient id="paint38_linear_230_382" x1="36.38" y1="86.4" x2="36.38" y2="52.74" gradientUnits="userSpaceOnUse">
<stop offset="0.02" stop-color="#FFA58B"/>
<stop offset="1" stop-color="#FF898E"/>
</linearGradient>
<linearGradient id="paint39_linear_230_382" x1="290.3" y1="266.46" x2="290.3" y2="255.76" gradientUnits="userSpaceOnUse">
<stop stop-color="#1C257B"/>
<stop offset="1" stop-color="#482C83"/>
</linearGradient>
<linearGradient id="paint40_linear_230_382" x1="301.6" y1="465.84" x2="301.6" y2="266.42" gradientUnits="userSpaceOnUse">
<stop stop-color="#1C257B"/>
<stop offset="1" stop-color="#482C83"/>
</linearGradient>
<linearGradient id="paint41_linear_230_382" x1="170.363" y1="93.4954" x2="165.44" y2="66.6924" gradientUnits="userSpaceOnUse">
<stop offset="0.02" stop-color="#FFAC8B"/>
<stop offset="1" stop-color="#FF9595"/>
</linearGradient>
<linearGradient id="paint42_linear_230_382" x1="179.56" y1="112.4" x2="213.82" y2="112.4" gradientUnits="userSpaceOnUse">
<stop stop-color="#CF6074"/>
<stop offset="1" stop-color="#FF817F"/>
</linearGradient>
<linearGradient id="paint43_linear_230_382" x1="42.5" y1="119.15" x2="42.5" y2="92.6" gradientUnits="userSpaceOnUse">
<stop offset="0.02" stop-color="#FF997C"/>
<stop offset="1" stop-color="#FF898E"/>
</linearGradient>
<linearGradient id="paint44_linear_230_382" x1="51.46" y1="103.75" x2="57.66" y2="103.75" gradientUnits="userSpaceOnUse">
<stop stop-color="#CF6074"/>
<stop offset="1" stop-color="#FF817F"/>
</linearGradient>
<linearGradient id="paint45_linear_230_382" x1="57.46" y1="138.72" x2="57.46" y2="127.76" gradientUnits="userSpaceOnUse">
<stop stop-color="#CF6074"/>
<stop offset="1" stop-color="#FF817F"/>
</linearGradient>
<linearGradient id="paint46_linear_230_382" x1="102.49" y1="228.33" x2="102.49" y2="169.98" gradientUnits="userSpaceOnUse">
<stop stop-color="#CF6074"/>
<stop offset="1" stop-color="#FF817F"/>
</linearGradient>
<linearGradient id="paint47_linear_230_382" x1="195.09" y1="313.82" x2="195.09" y2="124.64" gradientUnits="userSpaceOnUse">
<stop stop-color="#8B8BE0"/>
<stop offset="1" stop-color="#A177B7"/>
</linearGradient>
<linearGradient id="paint48_linear_230_382" x1="184.94" y1="220.85" x2="184.94" y2="212.45" gradientUnits="userSpaceOnUse">
<stop stop-color="#8B8BE0"/>
<stop offset="1" stop-color="#A177B7"/>
</linearGradient>
<linearGradient id="paint49_linear_230_382" x1="242.44" y1="178.32" x2="242.44" y2="128.47" gradientUnits="userSpaceOnUse">
<stop stop-color="#8B8BE0"/>
<stop offset="1" stop-color="#A177B7"/>
</linearGradient>
<linearGradient id="paint50_linear_230_382" x1="224.46" y1="190.66" x2="224.46" y2="144.4" gradientUnits="userSpaceOnUse">
<stop stop-color="#8B8BE0"/>
<stop offset="1" stop-color="#A177B7"/>
</linearGradient>
<linearGradient id="paint51_linear_230_382" x1="209.58" y1="279.25" x2="209.58" y2="266.46" gradientUnits="userSpaceOnUse">
<stop stop-color="#8B8BE0"/>
<stop offset="1" stop-color="#A177B7"/>
</linearGradient>
<linearGradient id="paint52_linear_230_382" x1="149" y1="204.94" x2="149" y2="180.32" gradientUnits="userSpaceOnUse">
<stop stop-color="#9D68C2"/>
<stop offset="1" stop-color="#90AEFF"/>
</linearGradient>
<linearGradient id="paint53_linear_230_382" x1="222.98" y1="357.28" x2="222.98" y2="319.72" gradientUnits="userSpaceOnUse">
<stop stop-color="#8B8BE0"/>
<stop offset="1" stop-color="#A177B7"/>
</linearGradient>
<linearGradient id="paint54_linear_230_382" x1="150.31" y1="465.81" x2="150.31" y2="336.49" gradientUnits="userSpaceOnUse">
<stop stop-color="#8B8BE0"/>
<stop offset="1" stop-color="#A177B7"/>
</linearGradient>
<linearGradient id="paint55_linear_230_382" x1="230.4" y1="465.81" x2="230.4" y2="357.62" gradientUnits="userSpaceOnUse">
<stop stop-color="#8B8BE0"/>
<stop offset="1" stop-color="#A177B7"/>
</linearGradient>
<linearGradient id="paint56_linear_230_382" x1="294.52" y1="254.33" x2="294.52" y2="163.69" gradientUnits="userSpaceOnUse">
<stop stop-color="#8642A0"/>
<stop offset="1" stop-color="#6456C0"/>
</linearGradient>
<linearGradient id="paint57_linear_230_382" x1="320.42" y1="213.36" x2="332.39" y2="213.36" gradientUnits="userSpaceOnUse">
<stop stop-color="#CF6074"/>
<stop offset="1" stop-color="#FF817F"/>
</linearGradient>
<linearGradient id="paint58_linear_230_382" x1="167.39" y1="133.59" x2="167.39" y2="133.3" gradientUnits="userSpaceOnUse">
<stop stop-color="#9D68C2"/>
<stop offset="1" stop-color="#CCEDFF"/>
</linearGradient>
<linearGradient id="paint59_linear_230_382" x1="208.4" y1="290.95" x2="208.4" y2="271.49" gradientUnits="userSpaceOnUse">
<stop stop-color="#B9ACF4"/>
<stop offset="1" stop-color="#E1D1F5"/>
</linearGradient>
<linearGradient id="paint60_linear_230_382" x1="222.51" y1="302.69" x2="222.51" y2="288.09" gradientUnits="userSpaceOnUse">
<stop stop-color="#B9ACF4"/>
<stop offset="1" stop-color="#E1D1F5"/>
</linearGradient>
<linearGradient id="paint61_linear_230_382" x1="277.14" y1="256.6" x2="277.14" y2="203.25" gradientUnits="userSpaceOnUse">
<stop stop-color="#B9ACF4"/>
<stop offset="1" stop-color="#E1D1F5"/>
</linearGradient>
<linearGradient id="paint62_linear_230_382" x1="162.26" y1="403.47" x2="162.26" y2="349.59" gradientUnits="userSpaceOnUse">
<stop stop-color="#8B8BE0"/>
<stop offset="1" stop-color="#A177B7"/>
</linearGradient>
<linearGradient id="paint63_linear_230_382" x1="220.15" y1="405.95" x2="220.15" y2="340.77" gradientUnits="userSpaceOnUse">
<stop stop-color="#8B8BE0"/>
<stop offset="1" stop-color="#A177B7"/>
</linearGradient>
<linearGradient id="paint64_linear_230_382" x1="215.33" y1="146.2" x2="215.33" y2="127.56" gradientUnits="userSpaceOnUse">
<stop stop-color="#3D2CB0"/>
<stop offset="1" stop-color="#0355C7"/>
</linearGradient>
<linearGradient id="paint65_linear_230_382" x1="166.97" y1="52.52" x2="163.11" y2="28.18" gradientUnits="userSpaceOnUse">
<stop stop-color="#5E3187"/>
<stop offset="0.38" stop-color="#422271"/>
<stop offset="0.76" stop-color="#2C1760"/>
<stop offset="1" stop-color="#24135A"/>
</linearGradient>
<linearGradient id="paint66_linear_230_382" x1="204.18" y1="27.09" x2="204.18" y2="5.12" gradientUnits="userSpaceOnUse">
<stop stop-color="#8B8BE0"/>
<stop offset="1" stop-color="#A177B7"/>
</linearGradient>
<linearGradient id="paint67_linear_230_382" x1="188.21" y1="27.09" x2="188.21" y2="12.18" gradientUnits="userSpaceOnUse">
<stop stop-color="#8B8BE0"/>
<stop offset="1" stop-color="#A177B7"/>
</linearGradient>
<linearGradient id="paint68_linear_230_382" x1="218.49" y1="25.89" x2="218.49" y2="16.26" gradientUnits="userSpaceOnUse">
<stop stop-color="#8B8BE0"/>
<stop offset="1" stop-color="#A177B7"/>
</linearGradient>
<linearGradient id="paint69_linear_230_382" x1="189.91" y1="73.17" x2="189.91" y2="47.7" gradientUnits="userSpaceOnUse">
<stop stop-color="#F2C7CC"/>
<stop offset="1" stop-color="#A177B7"/>
</linearGradient>
<linearGradient id="paint70_linear_230_382" x1="192.54" y1="70.56" x2="195.51" y2="45.9" gradientUnits="userSpaceOnUse">
<stop stop-color="#1C257B"/>
<stop offset="1" stop-color="#482C83"/>
</linearGradient>
<linearGradient id="paint71_linear_230_382" x1="193" y1="70.51" x2="195.96" y2="45.85" gradientUnits="userSpaceOnUse">
<stop stop-color="#1C257B"/>
<stop offset="1" stop-color="#65459C"/>
</linearGradient>
<linearGradient id="paint72_linear_230_382" x1="219.88" y1="65.58" x2="222.39" y2="44.71" gradientUnits="userSpaceOnUse">
<stop stop-color="#1C257B"/>
<stop offset="1" stop-color="#482C83"/>
</linearGradient>
<linearGradient id="paint73_linear_230_382" x1="220.39" y1="65.58" x2="222.9" y2="44.71" gradientUnits="userSpaceOnUse">
<stop stop-color="#1C257B"/>
<stop offset="1" stop-color="#65459C"/>
</linearGradient>
<linearGradient id="paint74_linear_230_382" x1="210.68" y1="50.01" x2="211.1" y2="46.52" gradientUnits="userSpaceOnUse">
<stop stop-color="#1C257B"/>
<stop offset="1" stop-color="#65459C"/>
</linearGradient>
<linearGradient id="paint75_linear_230_382" x1="170.66" y1="71.94" x2="172.89" y2="53.44" gradientUnits="userSpaceOnUse">
<stop stop-color="#1C257B"/>
<stop offset="1" stop-color="#65459C"/>
</linearGradient>
<linearGradient id="paint76_linear_230_382" x1="173.62" y1="62.8" x2="173.62" y2="57.58" gradientUnits="userSpaceOnUse">
<stop stop-color="#8642A0"/>
<stop offset="1" stop-color="#6456C0"/>
</linearGradient>
<linearGradient id="paint77_linear_230_382" x1="185.08" y1="63.9" x2="185.08" y2="52.41" gradientUnits="userSpaceOnUse">
<stop/>
<stop offset="1" stop-color="#E1D1F5"/>
</linearGradient>
<linearGradient id="paint78_linear_230_382" x1="200.64" y1="112.97" x2="200.64" y2="92.65" gradientUnits="userSpaceOnUse">
<stop offset="0.02" stop-color="#FFA58B"/>
<stop offset="1" stop-color="#FF898E"/>
</linearGradient>
<clipPath id="clip0_230_382">
<rect width="348.89" height="465.84" fill="white"/>
</clipPath>
</defs>
</svg>
