<svg width="41" height="37" viewBox="0 0 41 37" fill="none" xmlns="http://www.w3.org/2000/svg">
<path d="M3.64644 0.330837C2.19214 0.729275 1.17612 1.80506 0.867334 3.25935C0.707959 4.00642 0.707959 32.8433 0.867334 33.5804C1.19604 35.1343 2.35151 36.25 3.94526 36.5488C4.72222 36.6982 37.2347 36.6883 37.932 36.5388C38.9779 36.3097 39.8445 35.732 40.3824 34.8754C41.0298 33.8593 41 34.457 41 22.2051C41 9.9531 41.0298 10.5508 40.3824 9.53474C39.9939 8.92713 39.5058 8.48884 38.8085 8.17009L38.2607 7.91111L29.9931 7.86131L21.7255 7.8115L20.2613 5.42088C17.0638 0.211308 17.3128 0.589821 16.8546 0.380642C16.4662 0.201344 16.1076 0.191383 10.2705 0.201344C5.67847 0.201344 3.97515 0.241188 3.64644 0.330837Z" fill="#4E6AFF"/>
</svg>
