<svg width="43" height="330" viewBox="0 0 43 330" fill="none" xmlns="http://www.w3.org/2000/svg">
<path fill-rule="evenodd" clip-rule="evenodd" d="M21.4999 0C11.862 0 4.04676 7.9072 4.04676 17.6623C4.04676 25.4663 9.0476 32.0866 15.9823 34.4223C16.8542 34.5861 17.1744 34.0392 17.1744 33.5726C17.1744 33.1515 17.1583 31.7601 17.1507 30.2843C12.2953 31.3527 11.2707 28.2004 11.2707 28.2004C10.4768 26.1589 9.33286 25.616 9.33286 25.616C7.74905 24.5198 9.45222 24.5426 9.45222 24.5426C11.2045 24.6669 12.1276 26.3627 12.1276 26.3627C13.6843 29.0623 16.2106 28.282 17.2065 27.831C17.3632 26.6894 17.8155 25.91 18.3146 25.4689C14.438 25.0229 10.3626 23.5081 10.3626 16.7404C10.3626 14.8121 11.0447 13.2365 12.1612 11.9993C11.9797 11.5547 11.3823 9.75831 12.33 7.32546C12.33 7.32546 13.7953 6.85077 17.1305 9.13591C18.523 8.74428 20.0163 8.54745 21.4999 8.54072C22.9825 8.54745 24.4767 8.7437 25.8718 9.13533C29.203 6.85018 30.6666 7.32488 30.6666 7.32488C31.6166 9.75744 31.0192 11.5541 30.838 11.9987C31.957 13.2359 32.6342 14.8115 32.6342 16.7398C32.6342 23.5236 28.5513 25.017 24.6649 25.4546C25.2912 26.0027 25.849 27.0778 25.849 28.7254C25.849 31.0886 25.8287 32.9906 25.8287 33.5724C25.8287 34.0424 26.1432 34.5931 27.0276 34.4197C33.9582 32.0816 38.9532 25.4633 38.9532 17.6623C38.9529 7.90779 31.1385 0 21.4999 0Z" fill="#097AFF"/>
<path d="M10.6571 25.3589C10.6187 25.4467 10.4823 25.473 10.358 25.413C10.2308 25.3557 10.16 25.2361 10.2011 25.148C10.2386 25.0574 10.3753 25.0325 10.5016 25.0931C10.6288 25.1507 10.7013 25.2712 10.6571 25.3589ZM11.3641 26.1571C11.2811 26.2352 11.1184 26.1989 11.008 26.0752C10.8935 25.9524 10.8722 25.7877 10.9568 25.7084C11.043 25.6306 11.2008 25.6675 11.3152 25.7903C11.4291 25.9149 11.4513 26.0778 11.3641 26.1571ZM12.0525 27.1741C11.9456 27.2495 11.7704 27.179 11.6623 27.022C11.5554 26.8646 11.5554 26.676 11.6652 26.6008C11.773 26.5253 11.9456 26.5935 12.0554 26.7491C12.1617 26.9085 12.1617 27.0974 12.0525 27.1741ZM12.995 28.1571C12.8996 28.2638 12.6956 28.2352 12.5464 28.0898C12.3941 27.9474 12.3516 27.7447 12.4473 27.6382C12.5444 27.5312 12.7493 27.561 12.8993 27.7055C13.0516 27.8476 13.097 28.0509 12.995 28.1571ZM14.2956 28.7277C14.2531 28.866 14.0571 28.9289 13.8591 28.8699C13.6617 28.8093 13.5326 28.6476 13.573 28.5078C13.6135 28.3682 13.8109 28.303 14.01 28.3659C14.2074 28.4262 14.3366 28.587 14.2956 28.7277ZM15.7242 28.8333C15.7291 28.9789 15.5614 29.0994 15.3542 29.1024C15.1453 29.1073 14.9762 28.9892 14.9742 28.8459C14.9742 28.6987 15.1383 28.5797 15.347 28.5756C15.5542 28.5718 15.7242 28.6891 15.7242 28.8333ZM17.0531 28.6046C17.0779 28.7464 16.9337 28.8924 16.7276 28.9313C16.5253 28.9693 16.3375 28.881 16.3114 28.7403C16.2866 28.5946 16.4334 28.4487 16.6357 28.4109C16.8421 28.375 17.027 28.4604 17.0531 28.6046Z" fill="#097AFF"/>
<path d="M2.55234 52.2248L6.0011 93.2215L21.4769 97.757L36.9954 93.2266L40.4477 52.2248H2.55234ZM33.2744 61.9311L33.0582 64.5542L32.9631 65.7571H14.8093L15.2426 70.8774H32.5315L32.4157 72.1469L31.3013 85.357L31.2193 86.1872L21.5 89.0213V89.0221L21.4883 89.0286L11.7756 86.3138L11.1162 78.5579H15.8782L16.2157 82.5514L21.4852 84.044H21.5V83.8443L26.7929 82.4271L27.3458 75.9978H10.9042L9.73803 62.0569L9.62462 60.6368H33.3881L33.2744 61.9311Z" fill="#097AFF"/>
<path d="M2.21399 114.067L5.72451 153.811L21.4766 158.24L37.2727 153.795L40.786 114.067H2.21399ZM33.493 123.173L32.3245 136.412L32.328 136.484L32.3231 136.648V136.647L31.4928 145.905L31.4014 146.727L21.5 149.489L21.4923 149.496L11.6081 146.719L10.9388 139.065H15.7858L16.1297 142.957L21.5014 144.425L21.5 144.428V144.427L26.8916 142.938L27.4614 136.6H16.1904L16.0937 135.529L15.8734 133.019L15.7578 131.671H27.8898L28.3311 126.742H9.85298L9.75627 125.671L9.53632 123.161L9.42041 121.813H33.6086L33.493 123.173Z" fill="#097AFF"/>
<path d="M40.2946 185.555L40.3999 185.485C40.1892 185.098 39.8732 184.747 39.5573 184.571L22.5996 174.796C22.3187 174.62 21.9325 174.55 21.5112 174.55C21.0899 174.55 20.7037 174.656 20.4228 174.796L3.5705 184.606C2.97365 184.958 2.55234 185.837 2.55234 186.505V206.089C2.55234 206.476 2.62256 206.898 2.86832 207.284L2.79811 207.32C2.97365 207.601 3.21941 207.847 3.46518 207.988L20.3877 217.797C20.6686 217.973 21.0548 218.044 21.4761 218.044C21.8974 218.044 22.2836 217.938 22.5645 217.797L39.4168 207.988C40.0137 207.636 40.435 206.757 40.435 206.089V186.469C40.4701 186.188 40.435 185.872 40.2946 185.555ZM21.5112 204.894C24.7061 204.894 27.5149 203.135 28.9894 200.534L33.5185 203.206C31.1311 207.355 26.6371 210.168 21.5112 210.168C13.8575 210.168 7.64315 203.944 7.64315 196.279C7.64315 188.614 13.8575 182.391 21.5112 182.391C26.6723 182.391 31.1662 185.239 33.5536 189.423L28.9894 192.06C27.5149 189.423 24.7061 187.665 21.5112 187.665C16.7715 187.665 12.9095 191.533 12.9095 196.279C12.9095 201.026 16.7715 204.894 21.5112 204.894Z" fill="#097AFF"/>
<path d="M21.5 257.566C23.6624 257.566 25.4153 255.806 25.4153 253.634C25.4153 251.463 23.6624 249.702 21.5 249.702C19.3376 249.702 17.5846 251.463 17.5846 253.634C17.5846 255.806 19.3376 257.566 21.5 257.566Z" fill="#097AFF"/>
<path d="M36.3714 247.15C35.6158 246.874 34.8259 246.598 34.0016 246.357C34.2077 245.529 34.3794 244.701 34.5168 243.908C35.238 239.355 34.4481 236.147 32.25 234.905C31.5974 234.526 30.8762 234.354 30.0519 234.354C27.6478 234.354 24.5911 236.147 21.5 239.148C18.4089 236.147 15.3522 234.354 12.9481 234.354C12.1238 234.354 11.4026 234.526 10.75 234.905C8.55192 236.182 7.76198 239.389 8.48323 243.908C8.62061 244.701 8.79233 245.529 8.9984 246.357C8.17412 246.598 7.38419 246.839 6.62859 247.15C2.33546 248.805 0 251.082 0 253.634C0 256.187 2.36981 258.463 6.62859 260.119C7.38419 260.395 8.17412 260.67 8.9984 260.912C8.79233 261.74 8.62061 262.567 8.48323 263.361C7.76198 267.914 8.55192 271.121 10.75 272.363C11.4026 272.742 12.1238 272.915 12.9481 272.915C15.3866 272.915 18.4433 271.121 21.5 268.121C24.5911 271.121 27.6478 272.915 30.0519 272.915C30.8762 272.915 31.5974 272.742 32.25 272.363C34.4481 271.087 35.238 267.879 34.5168 263.361C34.3794 262.567 34.2077 261.74 34.0016 260.912C34.8259 260.67 35.6158 260.429 36.3714 260.119C40.6645 258.463 43 256.187 43 253.634C43 251.082 40.6645 248.805 36.3714 247.15ZM31.2883 236.63C32.6965 237.458 33.1773 240.01 32.5935 243.632C32.4904 244.356 32.3187 245.115 32.1126 245.908C30.3267 245.494 28.4377 245.218 26.4457 245.046C25.278 243.39 24.0759 241.907 22.8738 240.562C25.4153 238.044 27.9912 236.32 30.0863 236.32C30.5327 236.32 30.9449 236.423 31.2883 236.63ZM27.4417 257.083C26.8235 258.187 26.1022 259.291 25.3466 260.395C24.0759 260.498 22.8051 260.533 21.5 260.533C20.1605 260.533 18.8898 260.498 17.6534 260.395C16.8978 259.291 16.2109 258.187 15.5927 257.083C14.9401 255.945 14.3219 254.772 13.7724 253.634C14.3219 252.496 14.9401 251.323 15.5927 250.185C16.2109 249.081 16.9321 247.978 17.6877 246.874C18.9585 246.77 20.2292 246.736 21.5343 246.736C22.8738 246.736 24.1446 246.77 25.381 246.874C26.1366 247.978 26.8235 249.081 27.4417 250.185C28.0942 251.323 28.7125 252.496 29.262 253.634C28.6781 254.772 28.0942 255.911 27.4417 257.083ZM30.2923 255.945C30.8075 257.152 31.2196 258.325 31.5974 259.498C30.4297 259.774 29.1933 259.981 27.8882 260.153C28.3003 259.498 28.7468 258.808 29.1246 258.084C29.5367 257.359 29.9145 256.635 30.2923 255.945ZM21.5 265.292C20.6757 264.396 19.8858 263.43 19.1302 262.43C19.9201 262.464 20.7101 262.498 21.5 262.498C22.2899 262.498 23.0799 262.464 23.8698 262.43C23.1142 263.43 22.3243 264.396 21.5 265.292ZM15.1118 260.119C13.8067 259.946 12.5703 259.739 11.4026 259.463C11.7803 258.325 12.1925 257.118 12.7077 255.911C13.0855 256.6 13.4633 257.325 13.8754 258.015C14.2875 258.773 14.6997 259.429 15.1118 260.119ZM12.7077 251.323C12.1925 250.116 11.7803 248.943 11.4026 247.771C12.5703 247.495 13.8067 247.288 15.1118 247.115C14.6997 247.771 14.2532 248.46 13.8754 249.185C13.4633 249.909 13.0855 250.633 12.7077 251.323ZM21.5 241.976C22.3243 242.873 23.1142 243.839 23.8698 244.839C23.0799 244.804 22.2899 244.77 21.5 244.77C20.7101 244.77 19.9201 244.804 19.1302 244.839C19.8858 243.839 20.6757 242.873 21.5 241.976ZM29.1246 249.219L27.8882 247.15C29.1933 247.322 30.4297 247.529 31.5974 247.805C31.2196 248.943 30.8075 250.151 30.2923 251.358C29.9145 250.633 29.5367 249.909 29.1246 249.219ZM10.4065 243.632C9.82268 240.01 10.3035 237.458 11.7117 236.63C12.0551 236.423 12.4673 236.32 12.9137 236.32C14.9744 236.32 17.5503 238.01 20.1262 240.562C18.9241 241.873 17.722 243.39 16.5543 245.046C14.5623 245.218 12.6733 245.529 10.8874 245.908C10.6813 245.115 10.5439 244.356 10.4065 243.632ZM1.92332 253.634C1.92332 252.013 3.88099 250.289 7.3155 249.012C8.0024 248.736 8.75799 248.495 9.51358 248.288C10.0631 250.013 10.75 251.841 11.5743 253.669C10.75 255.497 10.0288 257.29 9.51358 259.015C4.77396 257.635 1.92332 255.566 1.92332 253.634ZM11.7117 270.638C10.3035 269.811 9.82268 267.258 10.4065 263.637C10.5096 262.912 10.6813 262.154 10.8874 261.36C12.6733 261.774 14.5623 262.05 16.5543 262.223C17.722 263.878 18.9241 265.361 20.1262 266.706C17.5847 269.224 15.0088 270.949 12.9137 270.949C12.4673 270.949 12.0551 270.845 11.7117 270.638ZM32.5935 263.637C33.1773 267.258 32.6965 269.811 31.2883 270.638C30.9449 270.845 30.5327 270.949 30.0863 270.949C28.0256 270.949 25.4497 269.259 22.8738 266.706C24.0759 265.396 25.278 263.878 26.4457 262.223C28.4377 262.05 30.3267 261.74 32.1126 261.36C32.3187 262.154 32.4561 262.912 32.5935 263.637ZM35.6845 258.256C34.9976 258.532 34.242 258.773 33.4864 258.98C32.9369 257.256 32.25 255.428 31.4257 253.6C32.25 251.772 32.9712 249.978 33.4864 248.254C38.226 249.633 41.0767 251.703 41.0767 253.634C41.0767 255.255 39.0847 256.98 35.6845 258.256Z" fill="#097AFF"/>
<path d="M14.733 330C18.4784 330 21.5 326.966 21.5 323.204V316.408H14.733C10.9875 316.408 7.96596 319.443 7.96596 323.204C7.96596 326.966 10.9875 330 14.733 330ZM7.96596 309.612C7.96596 305.851 10.9875 302.817 14.733 302.817H21.5V316.408H14.733C10.9875 316.408 7.96596 313.374 7.96596 309.612ZM7.96596 296.021C7.96596 292.259 10.9875 289.225 14.733 289.225H21.5V302.817H14.733C10.9875 302.817 7.96596 299.782 7.96596 296.021ZM21.5 289.225H28.267C32.0125 289.225 35.034 292.259 35.034 296.021C35.034 299.782 32.0125 302.817 28.267 302.817H21.5V289.225ZM35.034 309.612C35.034 313.374 32.0125 316.408 28.267 316.408C24.5216 316.408 21.5 313.374 21.5 309.612C21.5 305.851 24.5216 302.817 28.267 302.817C32.0125 302.817 35.034 305.851 35.034 309.612Z" fill="#097AFF"/>
</svg>
