<svg width="41" height="334" viewBox="0 0 41 334" fill="none" xmlns="http://www.w3.org/2000/svg">
<path d="M3.83721 11.5823C3.83721 11.5823 3.00136 10.9924 4.00566 10.2058L6.34394 8.1613C6.34394 8.1613 7.01383 7.47236 7.72156 8.07299L29.3081 24.0454V31.7047C29.3081 31.7047 29.2974 32.9076 27.7185 32.7751L3.83721 11.5823Z" fill="#097AFF"/>
<path d="M9.40209 16.5187L3.83721 21.4624C3.83721 21.4624 3.26562 21.8779 3.83721 22.6214L6.4207 24.9171C6.4207 24.9171 7.03427 25.5619 7.94163 24.8288L13.8395 20.4572L9.40209 16.5187ZM19.1702 16.5597L29.3741 8.94473L29.3081 1.32658C29.3081 1.32658 28.8724 -0.336136 27.4186 0.529949L13.8395 12.6075L19.1702 16.5597Z" fill="#097AFF"/>
<path d="M27.7182 32.7846C28.3105 33.3776 29.029 33.183 29.029 33.183L36.9807 29.3541C37.9988 28.6757 37.8563 27.8344 37.8563 27.8344V4.96537C37.8563 3.95983 36.8037 3.6128 36.8037 3.6128L29.9112 0.365724C28.4055 -0.543975 27.4186 0.529949 27.4186 0.529949C27.4186 0.529949 28.6868 -0.363327 29.3081 1.32658L29.3081 31.565C29.3081 31.7731 29.2629 31.9769 29.1723 32.161C28.9911 32.5196 28.5963 32.8529 27.6525 32.7132L27.7182 32.7846Z" fill="#097AFF"/>
<path d="M3.18113 58.7275V92.4987H37.8191V58.7275H3.18113ZM21.5029 87.504C20.9917 88.5169 20.0157 89.1823 18.8849 89.5036C17.1471 89.8926 15.4851 89.6708 14.2486 88.9473C13.4212 88.4523 12.775 87.6905 12.3364 86.8127L14.9744 85.2376C14.9974 85.2471 15.0667 85.3692 15.1592 85.527C15.4956 86.0765 15.7857 86.4655 16.356 86.7387C16.9163 86.9251 18.1464 87.0442 18.6213 86.083C18.9115 85.5939 18.8192 84.0221 18.8192 82.283C18.8189 79.5503 18.8319 76.8289 18.8319 74.1272H22.0765C22.0765 77.099 22.0932 79.9137 22.0765 82.8136C22.0835 84.5914 22.2417 86.1762 21.5029 87.504ZM34.963 86.6103C33.8352 90.3716 27.5471 90.4937 25.0343 88.0087C24.5034 87.4238 24.1706 87.1182 23.8539 86.4431C25.1892 85.6942 25.1892 85.6942 26.4886 84.9612C27.1944 86.0189 27.8469 86.6006 29.021 86.8386C30.6138 87.0283 32.2163 86.4947 31.8569 84.8453C31.4875 83.4982 28.5954 83.1705 26.6271 81.73C24.6289 80.4216 24.1606 77.2422 25.8028 75.4256C26.35 74.7537 27.2833 74.2523 28.2626 74.0113L29.2846 73.8824C31.2467 73.8438 32.4732 74.349 33.3735 75.3291C33.624 75.5766 33.8285 75.8436 34.2109 76.422C33.1657 77.0715 33.169 77.0653 31.6718 78.0103C31.352 77.3387 30.8214 76.9172 30.2605 76.734C29.3899 76.4768 28.292 76.7565 28.0642 77.6534C27.9852 77.9298 28.0016 78.187 28.1271 78.6436C28.4798 79.4279 29.6636 79.7688 30.7255 80.2446C33.7822 81.4533 34.8144 82.7493 35.0683 84.292C35.3127 85.6202 35.0092 86.4817 34.963 86.6103Z" fill="#097AFF"/>
<path d="M3.18113 151.081H37.8191V117.31H3.18113V151.081ZM31.0938 132.845C31.9234 133.033 32.6774 133.456 33.2607 134.061C33.5818 134.387 33.861 134.749 34.092 135.141C34.092 135.184 32.5957 136.171 31.684 136.722C31.6507 136.743 31.5177 136.603 31.3709 136.389C31.2044 136.109 30.968 135.875 30.6835 135.708C30.3991 135.542 30.076 135.448 29.7443 135.436C28.6941 135.366 28.0179 135.903 28.0235 136.787C28.0148 137.007 28.0664 137.225 28.1731 137.419C28.4031 137.886 28.8326 138.164 30.1793 138.732C32.6594 139.772 33.7207 140.458 34.3802 141.433C35.1173 142.514 35.2808 144.259 34.782 145.551C34.2278 146.956 32.87 147.909 30.9497 148.226C30.0726 148.324 29.1864 148.314 28.3116 148.199C26.9766 147.987 25.7451 147.368 24.7952 146.429C24.4765 146.086 23.8558 145.192 23.8946 145.127C23.9958 145.053 24.1023 144.988 24.2133 144.929L25.488 144.216L26.4828 143.654L26.6906 143.954C27.0413 144.443 27.4877 144.86 28.0041 145.181C29.1125 145.748 30.6255 145.67 31.3736 145.013C31.6248 144.773 31.7816 144.454 31.8165 144.112C31.8514 143.771 31.7624 143.428 31.5648 143.144C31.2877 142.768 30.7335 142.452 29.1845 141.793C27.3972 141.042 26.6269 140.577 25.923 139.837C25.4836 139.348 25.1592 138.772 24.9725 138.148C24.8333 137.436 24.8127 136.706 24.9116 135.987C25.2801 134.304 26.5742 133.128 28.4641 132.78C29.3393 132.674 30.2258 132.698 31.0938 132.85V132.845ZM22.9636 134.261V135.644H18.4662V148.134H15.2767V135.641H10.7682V134.29C10.7561 133.825 10.7691 133.36 10.807 132.896C10.8236 132.875 13.5781 132.864 16.9033 132.869H22.9469L22.9636 134.261Z" fill="#007ACC"/>
<path d="M16.3017 192.56H24.6465C26.9695 192.56 28.7993 190.625 28.7993 188.33V180.502C28.7993 178.274 26.9013 176.6 24.6339 176.228C23.199 175.993 21.7163 175.886 20.2876 175.893C18.8596 175.899 17.5368 176.019 16.3369 176.228C12.8011 176.843 12.2007 178.129 12.2007 180.502V183.548H20.5V184.675H8.98854C6.56056 184.675 4.43422 186.113 3.76941 188.845C3.00215 191.977 2.9681 193.892 3.76941 197.161C4.36324 199.595 5.78128 201.289 8.20955 201.289H11.0559V197.615C11.0559 194.901 13.4679 192.56 16.3017 192.56ZM15.7757 181.546C14.9097 181.546 14.208 180.848 14.208 179.984C14.208 179.117 14.9094 178.413 15.7757 178.413C16.6385 178.413 17.3437 179.117 17.3437 179.984C17.3434 180.848 16.6382 181.546 15.7757 181.546ZM37.1791 188.845C36.5786 186.466 35.4325 184.675 33.0011 184.675H29.944V188.33C29.944 191.16 27.4273 193.404 24.6465 193.404H16.3017C14.0156 193.404 12.2007 195.467 12.2007 197.72V205.549C12.2007 207.776 14.131 209.087 16.3395 209.726C18.9844 210.491 21.489 210.63 24.6534 209.726C26.7565 209.127 28.7993 207.921 28.7993 205.549V202.416H20.5V201.289H33.0011C35.429 201.289 36.3342 199.663 37.1791 197.161C38.0511 194.586 38.0136 192.149 37.1791 188.845ZM25.1722 204.504C26.0385 204.504 26.7402 205.203 26.7402 206.066C26.7402 206.933 26.0388 207.638 25.1722 207.638C24.3094 207.638 23.6045 206.933 23.6045 206.066C23.6045 205.203 24.3094 204.504 25.1722 204.504Z" fill="#097AFF"/>
<path d="M27.4862 250.682C25.2081 250.949 25.2081 253.407 25.2081 253.407H29.7339C29.7643 253.407 29.9769 250.682 27.4862 250.682ZM12.6635 253.851H16.5514L14.6075 246.625L12.6635 253.851Z" fill="#097AFF"/>
<path d="M1.06044 235.164V273.071H39.9398V235.164H1.06044ZM18.5258 261.403L17.1589 256.635H12.056L10.7195 261.403H7.86432L12.7242 245.144V244.019H16.4299L21.6847 261.403H18.5258ZM32.498 255.598H25.2081C25.7853 261.284 31.6475 258.56 31.6475 258.56V260.929C31.6475 260.929 31.2527 261.699 27.1521 261.699C23.0516 261.699 22.2011 256.279 22.2011 256.279V254.888C22.2011 254.888 22.5959 248.372 27.4559 248.372C32.3158 248.372 32.4676 252.696 32.4676 252.696V255.598H32.498Z" fill="#097AFF"/>
<path d="M21.2471 319.753C21.3239 318.428 21.9924 317.259 23.004 316.432C23.995 315.619 25.3256 315.123 26.7866 315.123C28.2398 315.123 29.5701 315.619 30.5598 316.432C31.573 317.259 32.2373 318.428 32.3168 319.753C32.3936 321.112 31.8289 322.379 30.8417 323.319C29.8302 324.271 28.3987 324.873 26.7866 324.873C25.1731 324.873 23.7353 324.275 22.7301 323.319C21.7391 322.38 21.1756 321.119 21.2548 319.759L21.2471 319.753Z" fill="#097AFF"/>
<path d="M12.5708 322.554C12.5797 323.073 12.7514 324.081 13.0064 324.867C13.5452 326.533 14.4596 328.075 15.7258 329.426C17.0269 330.82 18.6324 331.941 20.4825 332.739C22.4277 333.573 24.5392 334 26.7302 334C28.9211 333.997 31.0326 333.563 32.9776 332.719C34.8277 331.913 36.4337 330.793 37.7342 329.391C39.0071 328.025 39.9187 326.484 40.454 324.817C40.722 323.988 40.8934 323.133 40.9649 322.267C41.0315 321.427 41.0033 320.579 40.8806 319.731C40.6405 318.098 40.0492 316.532 39.1455 315.136C38.321 313.84 37.2505 312.713 35.9776 311.759L35.9814 311.758L23.1834 302.231C23.1718 302.223 23.1616 302.214 23.15 302.206C22.3111 301.581 20.8938 301.584 19.9757 302.209C19.0424 302.843 18.9347 303.891 19.7656 304.55L19.7618 304.552L25.1052 308.763L8.83687 308.779H8.81509C7.47074 308.78 6.17604 309.635 5.92267 310.72C5.66001 311.819 6.57451 312.737 7.97652 312.737L7.97395 312.742L16.2175 312.727L1.46712 323.654C1.44918 323.668 1.42868 323.682 1.41075 323.695C0.0221921 324.724 -0.425925 326.441 0.448528 327.519C1.33836 328.619 3.22436 328.627 4.62765 327.525L12.654 321.152C12.654 321.152 12.5362 322.013 12.5464 322.525L12.5708 322.554ZM33.2501 325.433C31.5948 327.066 29.2731 327.997 26.7712 327.997C24.2628 328.001 21.9412 327.086 20.2855 325.455C19.4764 324.655 18.8835 323.745 18.5148 322.772C18.1544 321.814 18.0154 320.79 18.1077 319.773C18.1953 318.781 18.4987 317.819 18.9975 316.95C19.4802 316.103 20.1474 315.332 20.9642 314.681C22.5764 313.413 24.6222 312.719 26.7619 312.719C28.9109 312.717 30.957 313.398 32.5692 314.667C33.386 315.315 34.0506 316.081 34.5359 316.929C35.0358 317.798 35.3388 318.761 35.4244 319.753C35.5154 320.769 35.3764 321.792 35.0173 322.75C34.6499 323.732 34.0557 324.642 33.245 325.441L33.2501 325.433Z" fill="#097AFF"/>
</svg>
